<?xml version="1.0" encoding="UTF-8"?>
<!DOCTYPE svg PUBLIC "-//W3C//DTD SVG 1.1//EN" "http://www.w3.org/Graphics/SVG/1.1/DTD/svg11.dtd">
<svg version="1.1" xmlns="http://www.w3.org/2000/svg" xmlns:xlink="http://www.w3.org/1999/xlink" x="0" y="0" width="589.963" height="540" viewBox="0, 0, 589.963, 540">
  <g id="g4898">
    <g>
      <g>
        <path d="M364.164,540 C364.164,577.678 333.62,608.221 295.943,608.221 C258.266,608.221 227.723,577.678 227.723,540 C227.723,502.322 258.266,471.78 295.943,471.78 C333.62,471.78 364.164,502.322 364.164,540 z" fill="#FFFFFF"/>
        <path d="M364.164,540 C364.164,577.678 333.62,608.221 295.943,608.221 C258.266,608.221 227.723,577.678 227.723,540 C227.723,502.322 258.266,471.78 295.943,471.78 C333.62,471.78 364.164,502.322 364.164,540 z" fill-opacity="0" stroke="#636363" stroke-width="1.2"/>
      </g>
      <path d="M364.164,540 C364.164,577.678 333.62,608.221 295.943,608.221 C258.266,608.221 227.723,577.678 227.723,540 C227.723,502.322 258.266,471.78 295.943,471.78 C333.62,471.78 364.164,502.322 364.164,540 z" fill-opacity="0" stroke="#636363" stroke-width="2.4" stroke-linecap="square" stroke-miterlimit="10"/>
    </g>
    <g>
      <g>
        <path d="M2.884,540 L589.002,540" fill="#FFFFFF"/>
        <path d="M2.884,540 L589.002,540" fill-opacity="0" stroke="#636363" stroke-width="1.2"/>
      </g>
      <path d="M2.884,540 L589.002,540" fill-opacity="0" stroke="#636363" stroke-width="2.4" stroke-linecap="square" stroke-miterlimit="10"/>
    </g>
    <g>
      <path d="M202.74,0.961 L389.145,0.961 L389.145,221.957 L202.74,221.957 z" fill-opacity="0" stroke="#636363" stroke-width="2.4" stroke-linecap="square" stroke-linejoin="round" stroke-miterlimit="10"/>
      <path d="M227.723,223.879 C227.723,261.025 258.266,291.139 295.943,291.139 C333.62,291.139 364.164,261.025 364.164,223.879" fill-opacity="0" stroke="#636363" stroke-width="2.4" stroke-linecap="square" stroke-linejoin="round" stroke-miterlimit="10"/>
      <path d="M391.068,185.444 L394.922,185.444" fill-opacity="0" stroke="#636363" stroke-width="2.4" stroke-linecap="square" stroke-linejoin="round" stroke-miterlimit="10"/>
      <path d="M391.068,150.854 L394.922,150.854" fill-opacity="0" stroke="#636363" stroke-width="2.4" stroke-linecap="square" stroke-linejoin="round" stroke-miterlimit="10"/>
      <path d="M391.068,68.22 L394.922,68.22" fill-opacity="0" stroke="#636363" stroke-width="2.4" stroke-linecap="square" stroke-linejoin="round" stroke-miterlimit="10"/>
      <g>
        <path d="M391.068,116.263 L394.911,116.263 L394.911,102.811 L391.068,102.811 z" fill-opacity="0" stroke="#636363" stroke-width="2.4" stroke-linecap="square" stroke-linejoin="round" stroke-miterlimit="10"/>
        <path d="M391.068,116.263 L394.911,116.263 L394.911,102.811 L391.068,102.811 z" fill-opacity="0" stroke="#636363" stroke-width="2.4" stroke-linecap="square" stroke-linejoin="round" stroke-miterlimit="10"/>
      </g>
      <path d="M200.819,185.444 L196.964,185.444" fill-opacity="0" stroke="#636363" stroke-width="2.4" stroke-linecap="square" stroke-linejoin="round" stroke-miterlimit="10"/>
      <path d="M200.819,150.854 L196.964,150.854" fill-opacity="0" stroke="#636363" stroke-width="2.4" stroke-linecap="square" stroke-linejoin="round" stroke-miterlimit="10"/>
      <path d="M200.819,68.22 L196.964,68.22" fill-opacity="0" stroke="#636363" stroke-width="2.4" stroke-linecap="square" stroke-linejoin="round" stroke-miterlimit="10"/>
      <g>
        <path d="M200.819,116.263 L196.975,116.263 L196.975,102.811 L200.819,102.811 z" fill-opacity="0" stroke="#636363" stroke-width="2.4" stroke-linecap="square" stroke-linejoin="round" stroke-miterlimit="10"/>
        <path d="M200.819,116.263 L196.975,116.263 L196.975,102.811 L200.819,102.811 z" fill-opacity="0" stroke="#636363" stroke-width="2.4" stroke-linecap="square" stroke-linejoin="round" stroke-miterlimit="10"/>
      </g>
    </g>
    <g>
      <g>
        <g>
          <path d="M296.904,63.41 C296.904,62.88 296.474,62.449 295.943,62.449 C295.412,62.449 294.983,62.88 294.983,63.41 C294.983,63.941 295.412,64.372 295.943,64.372 C296.474,64.372 296.904,63.941 296.904,63.41 z" fill="#000000"/>
          <path d="M296.904,63.41 C296.904,62.88 296.474,62.449 295.943,62.449 C295.412,62.449 294.983,62.88 294.983,63.41 C294.983,63.941 295.412,64.372 295.943,64.372 C296.474,64.372 296.904,63.941 296.904,63.41 z" fill-opacity="0" stroke="#636363" stroke-width="1.2"/>
        </g>
        <path d="M296.904,63.41 C296.904,62.88 296.474,62.449 295.943,62.449 C295.412,62.449 294.983,62.88 294.983,63.41 C294.983,63.941 295.412,64.372 295.943,64.372 C296.474,64.372 296.904,63.941 296.904,63.41 z" fill-opacity="0" stroke="#636363" stroke-width="2.4" stroke-linecap="square" stroke-miterlimit="10"/>
      </g>
      <path d="M248.861,63.41 C248.861,88.883 269.941,109.531 295.943,109.531 C321.945,109.531 343.025,88.883 343.025,63.41" fill-opacity="0" stroke="#636363" stroke-width="2.4" stroke-linecap="square" stroke-miterlimit="10"/>
      <path d="M343.025,49.003 L343.025,61.489" fill-opacity="0" stroke="#636363" stroke-width="2.4" stroke-linecap="square" stroke-miterlimit="10"/>
      <path d="M248.861,49.003 L248.861,61.489" fill-opacity="0" stroke="#636363" stroke-width="2.4" stroke-linecap="square" stroke-miterlimit="10"/>
      <path d="M262.314,47.082 L329.573,47.082" fill-opacity="0" stroke="#636363" stroke-width="2.4" stroke-linecap="square" stroke-miterlimit="10"/>
      <path d="M304.591,63.41 C304.591,58.634 300.719,54.763 295.943,54.763 C291.167,54.763 287.296,58.634 287.296,63.41 C287.296,68.186 291.167,72.058 295.943,72.058 C300.719,72.058 304.591,68.186 304.591,63.41 z" fill-opacity="0" stroke="#636363" stroke-width="2.4" stroke-linecap="square" stroke-miterlimit="10"/>
      <path d="M295.943,48.923 L295.943,53.964" fill-opacity="0" stroke="#636363" stroke-width="2.4" stroke-linecap="square" stroke-miterlimit="10"/>
    </g>
    <g>
      <path d="M43.217,117.4 C73.142,256.458 210.551,345.017 350.127,315.203 C449.581,293.959 527.282,216.58 548.647,117.505" fill-opacity="0" stroke="#636363" stroke-width="2.4" stroke-linecap="round" stroke-miterlimit="10"/>
      <g>
        <g>
          <path d="M548.648,1.128 L548.648,117.389" fill="#FFFF00"/>
          <path d="M548.648,1.128 L548.648,117.389" fill-opacity="0" stroke="#636363" stroke-width="1.2"/>
        </g>
        <path d="M548.648,1.128 L548.648,117.389" fill-opacity="0" stroke="#636363" stroke-width="2.4" stroke-linecap="round" stroke-miterlimit="10"/>
      </g>
      <g>
        <g>
          <path d="M43.217,1.128 L43.217,117.389" fill="#FFFF00"/>
          <path d="M43.217,1.128 L43.217,117.389" fill-opacity="0" stroke="#636363" stroke-width="1.2"/>
        </g>
        <path d="M43.217,1.128 L43.217,117.389" fill-opacity="0" stroke="#636363" stroke-width="2.4" stroke-linecap="round" stroke-miterlimit="10"/>
      </g>
    </g>
    <path d="M0,0 L0,540" fill-opacity="0" stroke="#636363" stroke-width="2.4"/>
    <path d="M589.963,0 L589.963,540" fill-opacity="0" stroke="#636363" stroke-width="2.4"/>
    <path d="M-0,0 L589.963,0" fill-opacity="0" stroke="#636363" stroke-width="2.4"/>
  </g>
</svg>
